# xmcd
#
# Track frame offsets:
#	150
#	13885
#	28647
#	43335
#	59047
#	73275
#	89242
#	104460
#	118137
#	130925
#	144677
#
# Disc length: 2113 seconds
#
# Revision: 2
# Processed by: cddbd v1.4PL0 Copyright (c) Steve Scherf et al.
#
# Submitted via: MusicManager v6.1.1.0
#
DISCID=b6083f0b
DTITLE=Aaron Tippin - Tool Box
DYEAR=1995
DGENRE=country
TTITLE0=Ten Pound Hammer
TTITLE1=That's As Close As I'll Get To Loving you
TTITLE2=A Real Nice Problem To Have
TTITLE3=Without Your Love
TTITLE4=How's The Radio Know
TTITLE5=Everything I Own
TTITLE6=I Can Help
TTITLE7=You Gotta Start Somewhere
TTITLE8=She Made A Man Out Of A Mountain Of Stone
TTITLE9=You've Always Got Me
TTITLE10=Country Boy's Tool Box
EXTD=
EXTT0=
EXTT1=
EXTT2=
EXTT3=
EXTT4=
EXTT5=
EXTT6=
EXTT7=
EXTT8=
EXTT9=
EXTT10=
PLAYORDER=
